<?xml version="1.0" encoding="UTF-8" standalone="no"?>
<svg
   xmlns:dc="http://purl.org/dc/elements/1.1/"
   xmlns:cc="http://creativecommons.org/ns#"
   xmlns:rdf="http://www.w3.org/1999/02/22-rdf-syntax-ns#"
   xmlns:svg="http://www.w3.org/2000/svg"
   xmlns="http://www.w3.org/2000/svg"
   xmlns:xlink="http://www.w3.org/1999/xlink"
   viewBox="0 0 595.27557 841.88977"
   id="svg2"
   height="841.88977"
   width="595.27557"
   version="1.1">
  <metadata
     id="metadata385">
    <rdf:RDF>
      <cc:Work
         rdf:about="">
        <dc:format>image/svg+xml</dc:format>
        <dc:type
           rdf:resource="http://purl.org/dc/dcmitype/StillImage" />
      </cc:Work>
    </rdf:RDF>
  </metadata>
  <defs
     id="defs383" />
  <path
     id="path4"
     style="fill:none"
     d="m 2495.8123,-122.3186 0,148.0002 355.0002,0 0,-148.0002 -355.0002,0 z" />
  <g
     id="g6">
    <path
       id="path8"
       style="fill:#000000;fill-rule:evenodd"
       d="m -7.2408,534.4396 0,148.0002 355.0002,0 0,-148.0002 -355.0002,0 z" />
    <path
       id="path10"
       style="fill:#d9d9da;fill-rule:evenodd"
       d="m 205.3285,612.6233 c -0.9522,-1.17 -1.6219,-2.0471 -2.0109,-2.6283 0.623,0.2606 1.2927,0.4005 2.0109,0.4214 0.7172,-0.0209 1.3879,-0.1608 2.01,-0.4214 -0.3891,0.5812 -1.0588,1.4583 -2.01,2.6283 z" />
    <path
       id="path12"
       style="fill:#42b236;fill-rule:evenodd"
       d="m 205.3201,593.5362 c -0.398,0.0851 -0.8074,0.3311 -1.2281,0.7384 0,0 -0.0875,-0.6178 -0.2625,-1.8532 0,0 -0.3089,0.139 -0.9266,0.4169 0.1817,0.8264 0.2742,1.6778 0.2777,2.5542 -5.2362,1.8065 -11.9451,12.4002 -7.3051,17.9699 2.6744,-1.1819 4.6706,-2.5656 5.9888,-4.1513 1.0077,1.9299 2.3485,3.6764 3.4558,4.7628 1.1073,-1.0864 2.4481,-2.8329 3.4558,-4.7628 1.3182,1.5857 3.3144,2.9694 5.9887,4.1513 4.6401,-5.5697 -2.0688,-16.1634 -7.305,-17.9699 0.004,-0.8764 0.096,-1.7278 0.2777,-2.5542 -0.6177,-0.2779 -0.9266,-0.4169 -0.9266,-0.4169 -0.175,1.2354 -0.2625,1.8532 -0.2625,1.8532 -0.4207,-0.4073 -0.8301,-0.6533 -1.2281,-0.7384 z m 0,18.901 c -0.7861,-0.9669 -1.3396,-1.6907 -1.6605,-2.1713 0.5142,0.2153 1.0677,0.3314 1.6605,0.3482 0.5928,-0.0168 1.1463,-0.1329 1.6605,-0.3482 -0.3209,0.4806 -0.8745,1.2044 -1.6605,2.1713 z m 0,-3.5408 c -0.6875,-0.0198 -1.4134,-0.1217 -2.1776,-0.3059 0.8,-0.7968 1.5259,-1.7357 2.1776,-2.8168 0.6517,1.0811 1.3776,2.02 2.1776,2.8168 -0.7643,0.1842 -1.4901,0.2861 -2.1776,0.3059 z m 0,-5.6411 c -0.7289,1.3912 -1.8208,2.7199 -3.3412,4.2805 1.6171,-2.2825 2.1314,-6.1878 2.2584,-11.5048 0.3884,-0.069 0.7505,-0.1116 1.0828,-0.1283 0.3323,0.0167 0.6944,0.0593 1.0828,0.1283 0.127,5.317 0.6413,9.2223 2.2584,11.5048 -1.5204,-1.5606 -2.6123,-2.8893 -3.3412,-4.2805 z m 0,-8.3987 c -0.2098,0.006 -0.4133,0.0202 -0.6104,0.0434 0.2059,-0.2807 0.4092,-0.4738 0.6104,-0.5722 0.2012,0.0984 0.4044,0.2915 0.6104,0.5722 -0.1971,-0.0232 -0.4006,-0.0377 -0.6104,-0.0434 z m 4.5329,13.147 c 1.2646,-3.4327 1.0613,-7.0953 -0.9652,-10.6636 2.906,2.1168 4.9547,5.2054 6.1464,9.266 0.4405,1.982 0.2964,3.8146 -0.4324,5.4978 -1.627,-0.8462 -3.3283,-2.1048 -4.7488,-4.1002 z m -2.4168,-10.9493 c -0.05,3.3374 0.3309,6.7762 1.8223,9.8837 0.4651,-4.3957 0.0842,-7.8344 -1.8223,-9.8837 z m -6.649,10.9493 c -1.2646,-3.4327 -1.0613,-7.0953 0.9652,-10.6636 -2.906,2.1168 -4.9548,5.2054 -6.1464,9.266 -0.4405,1.982 -0.2964,3.8146 0.4324,5.4978 1.627,-0.8462 3.3283,-2.1048 4.7488,-4.1002 z m 2.4168,-10.9493 c 0.05,3.3374 -0.331,6.7762 -1.8223,9.8837 -0.4651,-4.3957 -0.0842,-7.8344 1.8223,-9.8837 z" />
    <defs
       id="defs14">
      <radialGradient
         r="1"
         cy="0.52999997"
         cx="0.52999997"
         id="grad1">
 &gt;
    <stop
   id="stop17"
   stop-opacity="1"
   stop-color="#000000"
   offset="0%" />
<stop
   id="stop19"
   stop-opacity="1"
   stop-color="#2d9e5b"
   offset="100%" />
</radialGradient>
    </defs>
    <path
       id="path21"
       style="fill:url(#grad1)"
       d="m 205.1989,582.5542 c 12.3436,0 22.3511,10.0074 22.3511,22.3523 0,1.5171 -0.1498,2.9991 -0.4393,4.4316 l -8.5355,-1.9558 c 0.1442,-0.7952 0.2194,-1.6142 0.2194,-2.4508 0,-7.5397 -6.1123,-13.652 -13.6527,-13.652 -7.5397,0 -13.652,6.1123 -13.652,13.652 0,0.6022 0.0395,1.1957 0.1153,1.7778 l -8.5048,1.566 c -0.03,-9.8991 0.0238,-19.5951 0.0633,-28.2923 l 10.0112,-3.5931 0,9.6722 c 3.4704,-2.2202 7.5981,-3.5079 12.024,-3.5079 z" />
    <defs
       id="defs23">
      <linearGradient
         id="grad2">
        <stop
           id="stop26"
           stop-opacity="1"
           stop-color="#c4c4c5"
           offset="3435993547.0000%" />
        <stop
           id="stop28"
           stop-opacity="1"
           stop-color="#000000"
           offset="12.0000%" />
        <stop
           id="stop30"
           stop-opacity="1"
           stop-color="#d6d6d6"
           offset="0.0000%" />
      </linearGradient>
      <linearGradient
         gradientUnits="objectBoundingBox"
         gradientTransform="matrix(0.9781476,-0.20791169,0.20791169,0.9781476,-0.09302965,0.11488205)"
         y2="1"
         x2="0"
         y1="0"
         x1="0"
         id="grad3"
         xlink:href="#grad2" />
    </defs>
    <path
       id="path33"
       style="fill:url(#grad3)"
       d="m 24.3111,576.8481 12.2757,0 0,48.1938 -12.2757,0 0,-48.1938 z m 14.809,20.5461 0,-9.3637 c 1.9052,-0.7903 4.0484,-1.18 6.4409,-1.18 2.4466,0 4.6224,0.4872 6.5061,1.4723 1.8943,0.985 3.4531,2.3383 4.6655,4.0595 1.2124,1.7212 2.1325,3.7131 2.7604,5.9646 0.6171,2.2516 0.9312,4.7197 0.9312,7.4044 0,2.0784 -0.2492,4.6658 -0.758,7.7618 -0.5088,3.096 -1.4071,6.939 -2.6955,11.5288 l -12.2542,0 c 0.8878,-2.8145 1.6129,-5.8564 2.1867,-9.1256 0.5737,-3.2802 0.8552,-6.0621 0.8552,-8.3463 0,-2.5115 -0.3138,-4.5465 -0.9524,-6.1163 -0.6387,-1.5588 -1.4724,-2.6739 -2.5115,-3.3449 -1.0285,-0.6605 -2.1325,-0.9961 -3.3018,-0.9961 -0.7577,0 -1.3856,0.0975 -1.8726,0.2815 z" />
    <defs
       id="defs35">
      <linearGradient
         id="grad4">
        <stop
           id="stop38"
           stop-opacity="1"
           stop-color="#c8c9c9"
           offset="0.0000%" />
        <stop
           id="stop40"
           stop-opacity="1"
           stop-color="#ffffff"
           offset="12.0000%" />
        <stop
           id="stop42"
           stop-opacity="1"
           stop-color="#d6d6d6"
           offset="0.0000%" />
      </linearGradient>
      <linearGradient
         gradientUnits="objectBoundingBox"
         gradientTransform="matrix(0.99862953,-0.05233596,0.05233596,0.99862953,-0.02548275,0.02685321)"
         y2="1"
         x2="0"
         y1="0"
         x1="0"
         id="grad5"
         xlink:href="#grad4" />
    </defs>
    <path
       id="path45"
       style="fill:url(#grad5)"
       d="m 85.8861,615.2451 0,9.3637 c -2.23,0.6389 -4.5031,0.9527 -6.8307,0.9527 -2.3706,0 -4.4708,-0.4762 -6.311,-1.4397 -1.8403,-0.9635 -3.3667,-2.3057 -4.5791,-4.0269 -1.2016,-1.7323 -2.1002,-3.7131 -2.6955,-5.9539 -0.5955,-2.2408 -0.8878,-4.655 -0.8878,-7.2638 0,-5.2177 1.0826,-11.637 3.2369,-19.2472 l 12.4055,0 c -1.0715,3.8863 -1.8402,7.5019 -2.2949,10.8575 -0.4547,3.3452 -0.682,6.1489 -0.682,8.379 0,3.0526 0.6171,5.25 1.8621,6.6033 1.2339,1.3532 2.8037,2.0242 4.7089,2.0242 0.4439,0 1.1367,-0.0865 2.0676,-0.2489 z m 2.533,9.7968 0,-37.4119 12.276,0 0,37.4119 -12.276,0 z" />
    <defs
       id="defs47">
      <linearGradient
         id="grad6">
        <stop
           id="stop50"
           stop-opacity="1"
           stop-color="#c4c4c5"
           offset="3435993547.0000%" />
        <stop
           id="stop52"
           stop-opacity="1"
           stop-color="#000000"
           offset="12.0000%" />
        <stop
           id="stop54"
           stop-opacity="1"
           stop-color="#d6d6d6"
           offset="0.0000%" />
      </linearGradient>
      <linearGradient
         gradientUnits="objectBoundingBox"
         gradientTransform="matrix(0.99862953,-0.05233596,0.05233596,0.99862953,-0.02548275,0.02685321)"
         y2="1"
         x2="0"
         y1="0"
         x1="0"
         id="grad7"
         xlink:href="#grad6" />
    </defs>
    <path
       id="path57"
       style="fill:url(#grad7)"
       d="m 123.2342,596.9721 0,-9.3529 c 1.1693,-0.1624 2.5115,-0.2492 4.038,-0.2492 2.7062,0 4.9362,0.5956 6.6793,1.7754 1.7427,1.18 3.0092,2.6739 3.778,4.4708 0.7685,1.7972 1.1582,3.6589 1.1582,5.5752 0,1.1041 -0.119,2.2731 -0.3682,3.5073 -0.2381,1.2339 -0.5953,2.4247 -1.0607,3.5722 l -10.7929,0 c 0.4439,-1.7427 0.6604,-3.2474 0.6604,-4.5357 0,-1.9052 -0.379,-3.1717 -1.1367,-3.8103 -0.7684,-0.6279 -1.5154,-0.9528 -2.2515,-0.9528 l -0.7039,0 z m -2.4681,-9.3421 0,37.4119 -12.2757,0 0,-37.4119 12.2757,0 z" />
    <defs
       id="defs59">
      <linearGradient
         id="grad8">
        <stop
           id="stop62"
           stop-opacity="1"
           stop-color="#c4c4c5"
           offset="3435993547.0000%" />
        <stop
           id="stop64"
           stop-opacity="1"
           stop-color="#000000"
           offset="12.0000%" />
        <stop
           id="stop66"
           stop-opacity="1"
           stop-color="#d6d6d6"
           offset="0.0000%" />
      </linearGradient>
      <linearGradient
         gradientUnits="objectBoundingBox"
         gradientTransform="matrix(0.99862953,-0.05233596,0.05233596,0.99862953,-0.02548275,0.02685321)"
         y2="1"
         x2="0"
         y1="0"
         x1="0"
         id="grad9"
         xlink:href="#grad8" />
    </defs>
    <path
       id="path69"
       style="fill:url(#grad9)"
       d="m 146.3471,597.3185 0,-9.6885 c 4.2542,-0.563 8.1079,-0.8445 11.5503,-0.8445 5.1205,0 9.7645,1.1909 13.9212,3.5723 4.1571,2.3709 6.2354,7.1231 6.2354,14.2245 l 0,20.4596 -21.109,0 c -3.5941,0 -7.0257,-0.7035 -10.2949,-2.1217 -3.2692,-1.4182 -4.9039,-4.5357 -4.9039,-9.3529 0,-2.0676 0.4872,-4.038 1.4723,-5.9108 0.985,-1.8726 2.6305,-3.3883 4.9255,-4.5573 2.2949,-1.1801 5.2503,-1.7646 8.8767,-1.7646 l 5.0771,0 c 0.8011,1.5157 1.2124,3.6482 1.2124,6.3652 l 0,1.4939 -3.5615,0 c -1.5049,0 -2.7714,0.2166 -3.7998,0.6497 -1.0284,0.4329 -1.5372,1.3422 -1.5372,2.7386 0,0.9527 0.3682,1.7104 1.0936,2.2626 0.7358,0.5629 1.6886,0.8444 2.8794,0.8444 l 7.3936,0 0,-8.6278 c 0,-2.0135 -0.1732,-3.7565 -0.5196,-5.2393 -0.3572,-1.4831 -1.3099,-2.8037 -2.8794,-3.9512 -1.5591,-1.1585 -3.9297,-1.7322 -7.1124,-1.7322 -2.901,0 -5.8672,0.3897 -8.9198,1.18 z" />
    <defs
       id="defs71">
      <linearGradient
         id="grad10">
        <stop
           id="stop74"
           stop-opacity="1"
           stop-color="#c4c4c5"
           offset="3435993547.0000%" />
        <stop
           id="stop76"
           stop-opacity="1"
           stop-color="#000000"
           offset="12.0000%" />
        <stop
           id="stop78"
           stop-opacity="1"
           stop-color="#d6d6d6"
           offset="0.0000%" />
      </linearGradient>
      <linearGradient
         gradientUnits="objectBoundingBox"
         gradientTransform="matrix(0.99862953,-0.05233596,0.05233596,0.99862953,-0.02548275,0.02685321)"
         y2="1"
         x2="0"
         y1="0"
         x1="0"
         id="grad11"
         xlink:href="#grad10" />
    </defs>
    <path
       id="path81"
       style="fill:url(#grad11)"
       d="m 268.9875,597.3185 0,-9.6885 c 4.2542,-0.563 8.1079,-0.8445 11.5503,-0.8445 5.1205,0 9.7645,1.1909 13.9212,3.5723 4.157,2.3709 6.2354,7.1231 6.2354,14.2245 l 0,20.4596 -21.109,0 c -3.5941,0 -7.0257,-0.7035 -10.2949,-2.1217 -3.2692,-1.4182 -4.9039,-4.5357 -4.9039,-9.3529 0,-2.0676 0.4872,-4.038 1.4723,-5.9108 0.985,-1.8726 2.6305,-3.3883 4.9254,-4.5573 2.295,-1.1801 5.2504,-1.7646 8.8767,-1.7646 l 5.0772,0 c 0.801,1.5157 1.2124,3.6482 1.2124,6.3652 l 0,1.4939 -3.5615,0 c -1.5049,0 -2.7714,0.2166 -3.7998,0.6497 -1.0284,0.4329 -1.5373,1.3422 -1.5373,2.7386 0,0.9527 0.3683,1.7104 1.0936,2.2626 0.7359,0.5629 1.6886,0.8444 2.8795,0.8444 l 7.3936,0 0,-8.6278 c 0,-2.0135 -0.1732,-3.7565 -0.5196,-5.2393 -0.3572,-1.4831 -1.3099,-2.8037 -2.8794,-3.9512 -1.5591,-1.1585 -3.9297,-1.7322 -7.1125,-1.7322 -2.9009,0 -5.8671,0.3897 -8.9197,1.18 z" />
    <defs
       id="defs83">
      <linearGradient
         id="grad12">
        <stop
           id="stop86"
           stop-opacity="1"
           stop-color="#c4c4c5"
           offset="3435993547.0000%" />
        <stop
           id="stop88"
           stop-opacity="1"
           stop-color="#000000"
           offset="12.0000%" />
        <stop
           id="stop90"
           stop-opacity="1"
           stop-color="#d6d6d6"
           offset="0.0000%" />
      </linearGradient>
      <linearGradient
         gradientUnits="objectBoundingBox"
         gradientTransform="matrix(0.99862953,-0.05233596,0.05233596,0.99862953,-0.02548275,0.02685321)"
         y2="1"
         x2="0"
         y1="0"
         x1="0"
         id="grad13"
         xlink:href="#grad12" />
    </defs>
    <path
       id="path93"
       style="fill:url(#grad13)"
       d="m 225.6375,613.9627 c -3.4754,7.8299 -11.3203,13.2954 -20.4386,13.2954 -9.622,0 -17.8229,-6.079 -20.9724,-14.6064 l 8.4885,-2.0616 c 2.1506,4.7155 6.9056,7.9941 12.4269,7.9941 4.9687,0 9.3175,-2.6545 11.7057,-6.6224 l 8.7899,2.0009 z" />
    <defs
       id="defs95">
      <linearGradient
         id="grad14">
        <stop
           id="stop98"
           stop-opacity="1"
           stop-color="#c4c4c5"
           offset="3435993547.0000%" />
        <stop
           id="stop100"
           stop-opacity="1"
           stop-color="#000000"
           offset="12.0000%" />
        <stop
           id="stop102"
           stop-opacity="1"
           stop-color="#d6d6d6"
           offset="0.0000%" />
      </linearGradient>
      <linearGradient
         gradientUnits="objectBoundingBox"
         gradientTransform="matrix(0.99862953,-0.05233596,0.05233596,0.99862953,-0.02548275,0.02685321)"
         y2="1"
         x2="0"
         y1="0"
         x1="0"
         id="grad15"
         xlink:href="#grad14" />
    </defs>
    <path
       id="path105"
       style="fill:url(#grad15)"
       d="m 183.1988,577.143 c 0.0254,-5.386 0.0487,-10.4331 0.0487,-14.9622 l 9.9736,-3.2542 0,14.4357 -10.0223,3.7807 z" />
  </g>
  <path
     id="path107"
     style="fill:#c4c4c4;fill-rule:evenodd"
     d="m 751.7415,-1.3623 a 27.375,30.3749 0 0 1 27.375,30.3749 27.375,30.3749 0 1 1 -27.375,-30.3749 z" />
  <path
     id="path109"
     style="fill:#dce3e3;fill-rule:evenodd"
     d="m 819.2415,-2.1124 a 27.375,30.3749 0 0 1 27.375,30.375 27.375,30.3749 0 1 1 -27.375,-30.375 z" />
  <path
     id="path111"
     style="fill:#afb0b0;fill-rule:evenodd"
     d="m 888.2416,-2.8624 a 27.375,30.3749 0 0 1 27.375,30.3749 27.375,30.3749 0 1 1 -27.375,-30.3749 z" />
  <path
     id="path113"
     style="fill:#189b2c;fill-rule:evenodd"
     d="m 751.7415,68.5412 a 27.375,30.3749 0 0 1 27.375,30.3749 27.375,30.3749 0 1 1 -27.375,-30.3749 z" />
  <path
     id="path115"
     style="fill:#00ff44;fill-rule:evenodd"
     d="m 819.2415,68.5412 a 27.375,30.3749 0 0 1 27.375,30.3749 27.375,30.3749 0 1 1 -27.375,-30.3749 z" />
  <g
     id="g117">
    <g
       id="g119">
      <defs
         id="defs121">
        <radialGradient
           r="0.69999999"
           cy="0.57499999"
           cx="0.57499999"
           id="grad16">
 &gt;
    <stop
   id="stop124"
   stop-opacity="1"
   stop-color="#ffffff"
   offset="0%" />
<stop
   id="stop126"
   stop-opacity="1"
   stop-color="#189b2c"
   offset="100%" />
</radialGradient>
      </defs>
      <path
         id="path128"
         style="fill:url(#grad16)"
         d="m 153.5888,291.555 0,45.6777 c 4.1579,-4.1289 8.6622,-7.2471 13.5133,-9.3258 4.8506,-2.0502 10.0476,-3.0899 15.5624,-3.0899 11.9829,0 22.1749,4.5333 30.5772,13.5708 8.4022,9.0665 12.5891,20.6735 12.5891,34.8505 0,1.1025 -0.029,2.1899 -0.0852,3.2634 l -6e-4,-7e-4 c -0.9435,0.0345 -1.9783,0.4322 -3.1032,1.1944 0,0 0.049,-1.447 0.1445,-4.3404 0,0 -0.7616,0.194 -2.2854,0.5814 0.0841,1.9602 -0.0459,3.944 -0.3898,5.9471 -12.6895,2.0272 -32.2702,23.5439 -23.9012,38.1319 1.8556,-0.4587 3.594,-0.9749 5.2163,-1.5503 -5.9168,3.2337 -12.4012,4.8475 -19.4544,4.8475 -5.2839,0 -10.2222,-0.9532 -14.7832,-2.8293 -4.5617,-1.8762 -9.5585,-5.0507 -14.0628,-9.324 l 6e-4,10.1007 -22.5787,-0.1995 0,-127.5055 23.0411,0 z m 72.0214,86.9026 c -0.032,0.3754 -0.0683,0.7489 -0.1076,1.1206 l -0.2871,-0.0604 c -0.4823,-0.0713 -0.9526,-0.1197 -1.4125,-0.1457 0.5832,-0.5585 1.1248,-0.9181 1.6247,-1.0632 0.0616,0.0447 0.1221,0.0943 0.1825,0.1487 z m -0.4201,3.545 c -1.3744,9.0502 -4.963,16.9629 -10.7746,23.7271 -0.6129,0.466 -1.253,0.9381 -1.9215,1.4204 4.61,-4.5671 7.3529,-13.2848 9.7755,-25.3832 0.9151,-0.001 1.7595,0.0459 2.5266,0.1408 0.1293,0.0296 0.2617,0.0611 0.394,0.0949 z m -15.6077,25.7381 c -1.5123,-8.3509 0.4219,-16.6389 6.4838,-23.9792 -7.4896,3.6708 -13.41,9.9061 -17.7619,18.7067 -1.8024,4.3525 -2.2074,8.5981 -1.2174,12.7366 4.0576,-1.2802 8.4494,-3.4743 12.4955,-7.4641 z m 9.9158,-24.0499 c -1.2246,7.6461 -3.4749,15.3508 -8.1291,21.8533 0.7006,-10.2312 2.9503,-17.936 8.1291,-21.8533 z m -41.7133,-37.7379 c -7.2471,0 -13.2818,2.483 -18.046,7.4201 -4.7925,4.9666 -7.1891,11.434 -7.1891,19.4319 0,8.1714 2.3966,14.7833 7.1891,19.8074 4.7642,5.053 10.7989,7.5651 18.046,7.5651 7.0453,0 12.9645,-2.5701 17.7861,-7.6806 4.8222,-5.1395 7.2188,-11.665 7.2188,-19.6048 0,-7.8831 -2.3676,-14.3505 -7.1033,-19.3746 -4.7062,-5.0525 -10.6828,-7.5645 -17.9016,-7.5645 z" />
      <defs
         id="defs130">
        <linearGradient
           id="grad17">
          <stop
             id="stop133"
             stop-opacity="1"
             stop-color="#169a2d"
             offset="0.0000%" />
          <stop
             id="stop135"
             stop-opacity="1"
             stop-color="#ffffff"
             offset="12.0000%" />
          <stop
             id="stop137"
             stop-opacity="1"
             stop-color="#d6d6d6"
             offset="0.0000%" />
          <stop
             id="stop139"
             stop-opacity="1"
             stop-color="#ffffff"
             offset="83890432.0000%" />
          <stop
             id="stop141"
             stop-opacity="1"
             stop-color="#ffffff"
             offset="0.0000%" />
        </linearGradient>
        <linearGradient
           gradientUnits="objectBoundingBox"
           gradientTransform="matrix(0.82903757,0.5591929,-0.5591929,0.82903757,0.36507767,-0.19411524)"
           y2="1"
           x2="0"
           y1="0"
           x1="0"
           id="grad18"
           xlink:href="#grad17" />
      </defs>
      <path
         id="path144"
         style="fill:url(#grad18)"
         d="m 201.3337,416.5134 c 4.1682,-1.47 7.5712,-3.3232 10.2071,-5.5584 1.528,4.8144 3.892,9.3434 5.9869,12.2695 2.9654,-2.0376 6.7298,-5.4907 9.807,-9.4969 2.3754,4.1518 6.3816,8.1151 12.0186,11.8886 12.8375,-10.8647 1.7577,-37.7645 -9.483,-43.9932 0.3596,-2.0006 0.9127,-3.9095 1.6592,-5.7246 -1.3002,-0.8831 -1.9506,-1.3249 -1.9506,-1.3249 -0.8951,2.7532 -1.343,4.1301 -1.343,4.1301 -0.7924,-1.0928 -1.6235,-1.8163 -2.4921,-2.1723 -0.0351,0.66 -0.0816,1.314 -0.1378,1.9632 0.3439,0.3155 0.6661,0.7809 0.9677,1.3902 -0.347,-0.104 -0.7054,-0.1977 -1.0747,-0.2799 -0.087,0.8166 -0.1922,1.6247 -0.3137,2.4244 0.6347,0.162 1.3074,0.3717 2.0146,0.6292 -1.8429,12.2005 -2.2346,21.3311 0.5452,27.1954 -2.8487,-4.1761 -4.8107,-7.6504 -5.9174,-11.121 -1.8629,2.4165 -4.2897,4.6311 -7.4364,7.0235 -0.5107,0.5929 -1.0378,1.178 -1.583,1.7541 -3.5529,3.7777 -7.3777,6.7775 -11.4746,9.003 z m 16.8105,3.1999 c -1.4089,-2.5247 -2.3832,-4.4003 -2.9242,-5.6273 1.0892,0.6975 2.3065,1.1847 3.655,1.4615 1.3618,0.1989 2.6734,0.156 3.9337,-0.1293 -0.9266,0.9689 -2.4806,2.4014 -4.6645,4.2951 z m 1.4205,-8.091 c -1.5637,-0.3215 -3.1812,-0.8444 -4.8542,-1.5727 2.1481,-1.4996 4.1826,-3.354 6.1066,-5.5626 1.0553,2.7314 2.3373,5.1685 3.846,7.31 -1.8206,0.1149 -3.5203,0.0556 -5.0984,-0.1747 z m 10.7154,-0.2212 c 4.2667,-7.3366 5.2719,-15.7878 2.072,-24.754 5.7917,6.002 9.2339,13.8814 10.328,23.6382 0.2115,4.7062 -0.8529,8.8363 -3.1933,12.3897 -3.3781,-2.5857 -6.7612,-6.1447 -9.2067,-11.2739 z m -1.1297,-25.9895 c -1.4537,7.6062 -1.9632,15.6162 0.1983,23.3155 2.8263,-9.8577 3.3358,-17.8683 -0.1983,-23.3155 z" />
      <defs
         id="defs146">
        <linearGradient
           id="grad19">
          <stop
             id="stop149"
             stop-opacity="1"
             stop-color="#169a2d"
             offset="0.0000%" />
          <stop
             id="stop151"
             stop-opacity="1"
             stop-color="#ffffff"
             offset="12.0000%" />
          <stop
             id="stop153"
             stop-opacity="1"
             stop-color="#d6d6d6"
             offset="0.0000%" />
          <stop
             id="stop155"
             stop-opacity="1"
             stop-color="#ffffff"
             offset="83890432.0000%" />
          <stop
             id="stop157"
             stop-opacity="1"
             stop-color="#ffffff"
             offset="0.0000%" />
        </linearGradient>
      </defs>
      <path
         id="path159"
         style="fill:url(#grad19)"
         d="m 90.9941,451.1215 -2.8143,0 0,-7.5515 -13.602,0 0,7.5515 -2.8142,0 0,-16.9788 2.8142,0 0,6.8944 13.602,0 0,-6.8944 2.8143,0 0,16.9788 z m 24.7881,-5.4878 c 0,1.7668 -0.8595,3.1976 -2.5797,4.2917 -1.7512,1.1414 -4.0882,1.7121 -7.0119,1.7121 -2.9238,0 -5.2769,-0.5707 -7.0593,-1.7121 -1.7196,-1.1097 -2.5796,-2.5404 -2.5796,-4.2917 l 0,-11.491 2.8142,0 0,10.8108 c 0,1.3293 0.5822,2.3456 1.7473,3.0488 1.165,0.7039 2.8574,1.0555 5.0774,1.0555 2.2199,0 3.9049,-0.3516 5.0537,-1.0555 1.1495,-0.7032 1.7236,-1.7195 1.7236,-3.0488 l 0,-10.8108 2.8143,0 0,11.491 z m 24.8123,5.4878 -3.2754,0 -4.5926,-6.473 -8.5713,0 0,6.473 -2.8143,0 0,-16.9788 13.391,0 c 1.7824,0 3.1815,0.4807 4.1978,1.4423 1.0163,0.9615 1.5241,2.2625 1.5241,3.9043 0,1.4382 -0.4139,2.5952 -1.2428,3.4708 -0.7661,0.8134 -1.8216,1.3293 -3.1659,1.5478 l 4.5494,6.6136 z m -6.2851,-9.0053 c 2.1732,0 3.2599,-0.8757 3.2599,-2.6269 0,-1.8758 -1.1726,-2.8143 -3.5176,-2.8143 l -9.8965,0 0,5.4412 10.1542,0 z m 29.315,9.0053 -3.0765,0 -1.9582,-3.7994 -11.4363,0 -1.9588,3.7994 -3.076,0 8.9823,-16.9788 3.5412,0 8.9823,16.9788 z m -6.4027,-6.3317 -4.3228,-8.2278 -4.3776,8.2278 8.7004,0 z m 26.4541,-2.4159 c 1.9386,0.6565 2.9082,2.0873 2.9082,4.2917 0,2.9704 -2.1421,4.4559 -6.4257,4.4559 l -13.5317,0 0,-16.9788 13.719,0 c 1.7201,0 3.0725,0.4219 4.0571,1.2659 0.9851,0.8445 1.4774,1.9703 1.4774,3.3774 0,1.5478 -0.7344,2.7439 -2.2043,3.5879 z m -3.2829,-1.1259 c 0.7816,0 1.4342,-0.2225 1.9582,-0.6721 0.5234,-0.4456 0.7851,-0.9927 0.7851,-1.6377 0,-0.6918 -0.234,-1.2428 -0.7033,-1.6492 -0.4692,-0.4105 -1.1102,-0.614 -1.923,-0.614 l -11.0691,0 0,4.573 10.9521,0 z m -0.2116,7.3406 c 2.3456,0 3.5181,-0.7736 3.5181,-2.3214 0,-1.6573 -1.0243,-2.4862 -3.0725,-2.4862 l -11.1861,0 0,4.8076 10.7405,0 z m 27.7442,2.5329 -18.4569,0 0,-2.5329 14.0245,-11.8899 -13.8136,0 0,-2.556 17.6124,0 0,2.564 -13.9888,11.8588 14.6224,0.0231 0,2.5329 z m 24.1321,0 -3.0766,0 -1.9582,-3.7994 -11.4363,0 -1.9587,3.7994 -3.076,0 8.9823,-16.9788 3.5412,0 8.9823,16.9788 z m -6.4027,-6.3317 -4.3228,-8.2278 -4.3776,8.2278 8.7004,0 z" />
      <g
         id="g161">
        <defs
           id="defs163">
          <linearGradient
             id="grad20">
            <stop
               id="stop166"
               stop-opacity="1"
               stop-color="#c4c4c4"
               offset="0.0000%" />
            <stop
               id="stop168"
               stop-opacity="1"
               stop-color="#ffffff"
               offset="12.0000%" />
            <stop
               id="stop170"
               stop-opacity="1"
               stop-color="#d6d6d6"
               offset="0.0000%" />
          </linearGradient>
          <linearGradient
             gradientUnits="objectBoundingBox"
             gradientTransform="matrix(0.9945219,0.10452846,-0.10452846,0.9945219,0.05500328,-0.04952518)"
             y2="1"
             x2="0"
             y1="0"
             x1="0"
             id="grad21"
             xlink:href="#grad20" />
        </defs>
        <path
           id="path173"
           style="fill:url(#grad21)"
           d="m 71.7024,291.7545 23.041,0 0,44.927 c 4.5043,-3.898 9.0085,-6.8138 13.5708,-8.7486 4.5327,-1.9342 9.153,-2.9164 13.8017,-2.9164 9.0949,0 16.7755,3.1473 23.012,9.4709 5.3414,5.4568 7.9979,13.4837 7.9979,24.0517 l 0,60.7209 -22.6947,0 0,-40.2784 c 0,-10.6259 -0.4908,-17.8441 -1.5014,-21.5976 -1.0106,-3.7826 -2.743,-6.5829 -5.197,-8.4603 -2.4256,-1.8477 -5.4574,-2.7713 -9.0375,-2.7713 -4.6487,0 -8.6621,1.5588 -12.0113,4.6487 -3.3208,3.0893 -5.6303,7.3046 -6.9298,12.6466 -0.6643,2.7713 -1.0107,9.0659 -1.0107,18.9121 l 0,36.9002 -23.041,0 0,-127.5055 z" />
      </g>
    </g>
    <path
       id="path175"
       style="fill:none"
       d="m 6.4222,240.1571 0,271.4998 280.5001,0 0,-271.4998 -280.5001,0 z" />
  </g>
  <g
     id="g177">
    <path
       id="path179"
       style="fill:#000000;fill-rule:evenodd"
       d="m 308.8783,9.8419 0,271.4998 280.5001,0 0,-271.4998 -280.5001,0 z" />
    <g
       id="g181">
      <defs
         id="defs183">
        <radialGradient
           r="0.69999999"
           cy="0.57499999"
           cx="0.57499999"
           id="grad22">
 &gt;
    <stop
   id="stop186"
   stop-opacity="1"
   stop-color="#ffffff"
   offset="0%" />
<stop
   id="stop188"
   stop-opacity="1"
   stop-color="#189b2c"
   offset="100%" />
</radialGradient>
      </defs>
      <path
         id="path190"
         style="fill:url(#grad22)"
         d="m 456.0449,61.2398 0,45.6777 c 4.1579,-4.1289 8.6622,-7.2472 13.5134,-9.3258 4.8506,-2.0503 10.0475,-3.0899 15.5624,-3.0899 11.9829,0 22.1749,4.5333 30.5771,13.5708 8.4023,9.0665 12.5892,20.6734 12.5892,34.8505 0,1.1025 -0.029,2.1898 -0.0853,3.2633 l -6e-4,-6e-4 c -0.9435,0.0345 -1.9783,0.4322 -3.1031,1.1944 0,0 0.0489,-1.447 0.1444,-4.3405 0,0 -0.7616,0.194 -2.2853,0.5815 0.084,1.9602 -0.046,3.9439 -0.3899,5.947 -12.6895,2.0273 -32.2702,23.544 -23.9012,38.132 1.8557,-0.4588 3.594,-0.975 5.2163,-1.5504 -5.9168,3.2338 -12.4012,4.8476 -19.4543,4.8476 -5.284,0 -10.2222,-0.9532 -14.7833,-2.8294 -4.5617,-1.8761 -9.5585,-5.0506 -14.0628,-9.324 l 6e-4,10.1007 -22.5786,-0.1994 0,-127.5055 23.041,0 z m 72.0215,86.9026 c -0.0321,0.3753 -0.0683,0.7489 -0.1076,1.1206 l -0.2871,-0.0605 c -0.4824,-0.0713 -0.9526,-0.1196 -1.4126,-0.1456 0.5833,-0.5585 1.1248,-0.9182 1.6247,-1.0632 0.0617,0.0447 0.1221,0.0943 0.1826,0.1487 z m -0.4201,3.545 c -1.3745,9.0502 -4.963,16.9628 -10.7747,23.7271 -0.6129,0.466 -1.253,0.938 -1.9215,1.4204 4.61,-4.5671 7.353,-13.2849 9.7755,-25.3833 0.9152,-0.001 1.7596,0.046 2.5266,0.1409 0.1293,0.0296 0.2617,0.061 0.3941,0.0949 z m -15.6077,25.738 c -1.5123,-8.3509 0.4218,-16.6389 6.4837,-23.9791 -7.4895,3.6707 -13.41,9.9061 -17.7619,18.7066 -1.8024,4.3526 -2.2074,8.5981 -1.2173,12.7367 4.0575,-1.2802 8.4494,-3.4743 12.4955,-7.4642 z m 9.9157,-24.0498 c -1.2246,7.6461 -3.4749,15.3508 -8.129,21.8533 0.7005,-10.2313 2.9502,-17.936 8.129,-21.8533 z m -41.7132,-37.7379 c -7.2472,0 -13.2819,2.483 -18.0461,7.42 -4.7925,4.9667 -7.1891,11.4341 -7.1891,19.432 0,8.1713 2.3966,14.7833 7.1891,19.8073 4.7642,5.0531 10.7989,7.5651 18.0461,7.5651 7.0452,0 12.9645,-2.57 17.7861,-7.6805 4.8221,-5.1395 7.2187,-11.665 7.2187,-19.6049 0,-7.883 -2.3676,-14.3505 -7.1033,-19.3745 -4.7061,-5.0525 -10.6828,-7.5645 -17.9015,-7.5645 z" />
      <defs
         id="defs192">
        <linearGradient
           id="grad23">
          <stop
             id="stop195"
             stop-opacity="1"
             stop-color="#169a2d"
             offset="0.0000%" />
          <stop
             id="stop197"
             stop-opacity="1"
             stop-color="#ffffff"
             offset="12.0000%" />
          <stop
             id="stop199"
             stop-opacity="1"
             stop-color="#d6d6d6"
             offset="0.0000%" />
          <stop
             id="stop201"
             stop-opacity="1"
             stop-color="#ffffff"
             offset="83890432.0000%" />
          <stop
             id="stop203"
             stop-opacity="1"
             stop-color="#ffffff"
             offset="0.0000%" />
        </linearGradient>
        <linearGradient
           gradientUnits="objectBoundingBox"
           gradientTransform="matrix(0.82903757,0.5591929,-0.5591929,0.82903757,0.36507767,-0.19411524)"
           y2="1"
           x2="0"
           y1="0"
           x1="0"
           id="grad24"
           xlink:href="#grad23" />
      </defs>
      <path
         id="path206"
         style="fill:url(#grad24)"
         d="m 503.7898,186.1982 c 4.1682,-1.47 7.5712,-3.3232 10.2071,-5.5584 1.528,4.8143 3.892,9.3433 5.9869,12.2694 2.9654,-2.0375 6.7298,-5.4907 9.807,-9.4969 2.3754,4.1519 6.3816,8.1152 12.0186,11.8887 12.8376,-10.8647 1.7577,-37.7645 -9.483,-43.9932 0.3596,-2.0007 0.9127,-3.9095 1.6592,-5.7246 -1.3002,-0.8831 -1.9505,-1.3249 -1.9505,-1.3249 -0.8952,2.7532 -1.3431,4.1301 -1.3431,4.1301 -0.7924,-1.0929 -1.6235,-1.8164 -2.4921,-2.1724 -0.035,0.6601 -0.0816,1.3141 -0.1378,1.9632 0.3439,0.3155 0.6661,0.781 0.9677,1.3902 -0.3469,-0.1039 -0.7054,-0.1976 -1.0747,-0.2798 -0.087,0.8166 -0.1922,1.6247 -0.3137,2.4244 0.6347,0.162 1.3074,0.3717 2.0146,0.6292 -1.8429,12.2005 -2.2346,21.3311 0.5452,27.1953 -2.8487,-4.176 -4.8107,-7.6503 -5.9174,-11.121 -1.8629,2.4166 -4.2897,4.6312 -7.4364,7.0236 -0.5107,0.5929 -1.0378,1.178 -1.583,1.754 -3.5528,3.7777 -7.3777,6.7775 -11.4746,9.0031 z m 16.8106,3.1999 c -1.409,-2.5248 -2.3833,-4.4003 -2.9243,-5.6273 1.0892,0.6975 2.3065,1.1847 3.655,1.4615 1.3618,0.1989 2.6734,0.1559 3.9337,-0.1294 -0.9266,0.969 -2.4806,2.4015 -4.6644,4.2952 z m 1.4204,-8.091 c -1.5637,-0.3216 -3.1811,-0.8444 -4.8542,-1.5727 2.1481,-1.4996 4.1827,-3.3541 6.1066,-5.5627 1.0553,2.7315 2.3373,5.1686 3.846,7.3101 -1.8206,0.1148 -3.5202,0.0556 -5.0984,-0.1747 z m 10.7154,-0.2212 c 4.2667,-7.3367 5.2719,-15.7879 2.072,-24.7541 5.7917,6.0021 9.234,13.8815 10.328,23.6383 0.2115,4.7061 -0.8529,8.8362 -3.1932,12.3897 -3.3782,-2.5858 -6.7612,-6.1447 -9.2068,-11.2739 z m -1.1297,-25.9895 c -1.4536,7.6062 -1.9632,15.6162 0.1983,23.3154 2.8263,-9.8577 3.3359,-17.8683 -0.1983,-23.3154 z" />
      <defs
         id="defs208">
        <linearGradient
           id="grad25">
          <stop
             id="stop211"
             stop-opacity="1"
             stop-color="#169a2d"
             offset="0.0000%" />
          <stop
             id="stop213"
             stop-opacity="1"
             stop-color="#ffffff"
             offset="12.0000%" />
          <stop
             id="stop215"
             stop-opacity="1"
             stop-color="#d6d6d6"
             offset="0.0000%" />
          <stop
             id="stop217"
             stop-opacity="1"
             stop-color="#ffffff"
             offset="83890432.0000%" />
          <stop
             id="stop219"
             stop-opacity="1"
             stop-color="#ffffff"
             offset="0.0000%" />
        </linearGradient>
      </defs>
      <path
         id="path221"
         style="fill:url(#grad25)"
         d="m 393.4502,220.8063 -2.8142,0 0,-7.5515 -13.6021,0 0,7.5515 -2.8142,0 0,-16.9789 2.8142,0 0,6.8944 13.6021,0 0,-6.8944 2.8142,0 0,16.9789 z m 24.7881,-5.4878 c 0,1.7668 -0.8595,3.1975 -2.5796,4.2917 -1.7513,1.1413 -4.0882,1.712 -7.012,1.712 -2.9238,0 -5.2769,-0.5707 -7.0593,-1.712 -1.7195,-1.1097 -2.5796,-2.5405 -2.5796,-4.2917 l 0,-11.4911 2.8142,0 0,10.8108 c 0,1.3293 0.5823,2.3456 1.7473,3.0489 1.165,0.7039 2.8575,1.0555 5.0774,1.0555 2.2199,0 3.9049,-0.3516 5.0538,-1.0555 1.1494,-0.7033 1.7236,-1.7196 1.7236,-3.0489 l 0,-10.8108 2.8142,0 0,11.4911 z m 24.8123,5.4878 -3.2754,0 -4.5926,-6.473 -8.5713,0 0,6.473 -2.8143,0 0,-16.9789 13.3911,0 c 1.7824,0 3.1814,0.4808 4.1977,1.4423 1.0163,0.9615 1.5242,2.2626 1.5242,3.9043 0,1.4383 -0.4139,2.5952 -1.2429,3.4709 -0.7661,0.8133 -1.8216,1.3293 -3.1659,1.5477 l 4.5494,6.6137 z m -6.2851,-9.0054 c 2.1733,0 3.2599,-0.8756 3.2599,-2.6269 0,-1.8757 -1.1725,-2.8142 -3.5175,-2.8142 l -9.8966,0 0,5.4411 10.1542,0 z m 29.315,9.0054 -3.0765,0 -1.9582,-3.7994 -11.4363,0 -1.9588,3.7994 -3.0759,0 8.9823,-16.9789 3.5411,0 8.9823,16.9789 z m -6.4026,-6.3318 -4.3229,-8.2277 -4.3776,8.2277 8.7005,0 z m 26.454,-2.4159 c 1.9386,0.6566 2.9082,2.0873 2.9082,4.2917 0,2.9705 -2.1421,4.456 -6.4257,4.456 l -13.5317,0 0,-16.9789 13.719,0 c 1.7202,0 3.0725,0.422 4.0571,1.2659 0.9852,0.8445 1.4775,1.9703 1.4775,3.3775 0,1.5477 -0.7344,2.7439 -2.2044,3.5878 z m -3.2829,-1.1258 c 0.7817,0 1.4342,-0.2225 1.9582,-0.6722 0.5234,-0.4456 0.7851,-0.9926 0.7851,-1.6377 0,-0.6917 -0.234,-1.2428 -0.7032,-1.6492 -0.4693,-0.4104 -1.1103,-0.6139 -1.9231,-0.6139 l -11.0691,0 0,4.573 10.9521,0 z m -0.2116,7.3406 c 2.3456,0 3.5181,-0.7736 3.5181,-2.3214 0,-1.6573 -1.0243,-2.4863 -3.0725,-2.4863 l -11.1861,0 0,4.8077 10.7405,0 z m 27.7442,2.5329 -18.4569,0 0,-2.5329 14.0245,-11.89 -13.8135,0 0,-2.556 17.6124,0 0,2.5641 -13.9888,11.8588 14.6223,0.0231 0,2.5329 z m 24.1321,0 -3.0765,0 -1.9583,-3.7994 -11.4362,0 -1.9588,3.7994 -3.076,0 8.9823,-16.9789 3.5412,0 8.9823,16.9789 z m -6.4027,-6.3318 -4.3228,-8.2277 -4.3776,8.2277 8.7004,0 z" />
      <g
         id="g223">
        <defs
           id="defs225">
          <linearGradient
             id="grad26">
            <stop
               id="stop228"
               stop-opacity="1"
               stop-color="#c4c4c4"
               offset="0.0000%" />
            <stop
               id="stop230"
               stop-opacity="1"
               stop-color="#ffffff"
               offset="12.0000%" />
            <stop
               id="stop232"
               stop-opacity="1"
               stop-color="#d6d6d6"
               offset="0.0000%" />
          </linearGradient>
          <linearGradient
             gradientUnits="objectBoundingBox"
             gradientTransform="matrix(0.9945219,0.10452846,-0.10452846,0.9945219,0.05500328,-0.04952518)"
             y2="1"
             x2="0"
             y1="0"
             x1="0"
             id="grad27"
             xlink:href="#grad26" />
        </defs>
        <path
           id="path235"
           style="fill:url(#grad27)"
           d="m 374.1585,61.4392 23.0411,0 0,44.927 c 4.5042,-3.898 9.0085,-6.8137 13.5707,-8.7485 4.5327,-1.9342 9.153,-2.9164 13.8017,-2.9164 9.0949,0 16.7755,3.1473 23.012,9.4708 5.3414,5.4569 7.9979,13.4838 7.9979,24.0517 l 0,60.7209 -22.6947,0 0,-40.2783 c 0,-10.626 -0.4908,-17.8441 -1.5014,-21.5977 -1.0106,-3.7825 -2.7429,-6.5829 -5.1969,-8.4602 -2.4256,-1.8478 -5.4575,-2.7714 -9.0375,-2.7714 -4.6487,0 -8.6622,1.5589 -12.0114,4.6487 -3.3207,3.0893 -5.6303,7.3046 -6.9298,12.6466 -0.6643,2.7714 -1.0106,9.0659 -1.0106,18.9122 l 0,36.9001 -23.0411,0 0,-127.5055 z" />
      </g>
    </g>
  </g>
  <g
     id="g237">
    <path
       id="path239"
       style="fill:none"
       d="m 42.4191,703.3884 0,148.0003 355.0002,0 0,-148.0003 -355.0002,0 z" />
    <path
       id="path241"
       style="fill:#d9d9da;fill-rule:evenodd"
       d="m 254.9884,781.5721 c -0.9522,-1.17 -1.6219,-2.047 -2.011,-2.6283 0.6231,0.2607 1.2928,0.4005 2.011,0.4214 0.7172,-0.0209 1.3878,-0.1607 2.0099,-0.4214 -0.389,0.5813 -1.0587,1.4583 -2.0099,2.6283 z" />
    <path
       id="path243"
       style="fill:#42b236;fill-rule:evenodd"
       d="m 254.98,762.485 c -0.3981,0.0851 -0.8074,0.3312 -1.2281,0.7384 0,0 -0.0875,-0.6177 -0.2625,-1.8532 0,0 -0.3089,0.139 -0.9266,0.417 0.1816,0.8264 0.2742,1.6778 0.2776,2.5541 -5.2361,1.8066 -11.945,12.4003 -7.305,17.9699 2.6744,-1.1818 4.6706,-2.5656 5.9888,-4.1513 1.0076,1.9299 2.3484,3.6764 3.4558,4.7629 1.1073,-1.0865 2.4481,-2.833 3.4558,-4.7629 1.3181,1.5857 3.3144,2.9695 5.9887,4.1513 4.6401,-5.5696 -2.0688,-16.1633 -7.305,-17.9699 0.003,-0.8763 0.096,-1.7277 0.2777,-2.5541 -0.6178,-0.278 -0.9266,-0.417 -0.9266,-0.417 -0.1751,1.2355 -0.2626,1.8532 -0.2626,1.8532 -0.4207,-0.4072 -0.83,-0.6533 -1.228,-0.7384 z m 0,18.9011 c -0.7861,-0.967 -1.3396,-1.6908 -1.6606,-2.1713 0.5142,0.2153 1.0678,0.3313 1.6606,0.3481 0.5928,-0.0168 1.1463,-0.1328 1.6605,-0.3481 -0.321,0.4805 -0.8745,1.2043 -1.6605,2.1713 z m 0,-3.5409 c -0.6875,-0.0198 -1.4134,-0.1217 -2.1777,-0.3059 0.8001,-0.7967 1.5259,-1.7357 2.1777,-2.8167 0.6517,1.081 1.3776,2.02 2.1776,2.8167 -0.7643,0.1842 -1.4901,0.2861 -2.1776,0.3059 z m 0,-5.6411 c -0.729,1.3912 -1.8208,2.72 -3.3412,4.2805 1.6171,-2.2824 2.1314,-6.1877 2.2583,-11.5048 0.3885,-0.0689 0.7506,-0.1115 1.0829,-0.1283 0.3323,0.0168 0.6943,0.0594 1.0828,0.1283 0.127,5.3171 0.6412,9.2224 2.2583,11.5048 -1.5203,-1.5605 -2.6122,-2.8893 -3.3411,-4.2805 z m 0,-8.3987 c -0.2099,0.006 -0.4133,0.0203 -0.6104,0.0435 0.2059,-0.2808 0.4092,-0.4738 0.6104,-0.5723 0.2012,0.0985 0.4044,0.2915 0.6103,0.5723 -0.197,-0.0232 -0.4005,-0.0377 -0.6103,-0.0435 z m 4.5329,13.147 c 1.2646,-3.4326 1.0613,-7.0953 -0.9652,-10.6635 2.9059,2.1167 4.9547,5.2054 6.1464,9.2659 0.4405,1.9821 0.2964,3.8147 -0.4324,5.4978 -1.627,-0.8461 -3.3283,-2.1047 -4.7488,-4.1002 z m -2.4169,-10.9492 c -0.0499,3.3374 0.331,6.7761 1.8223,9.8836 0.4652,-4.3957 0.0843,-7.8344 -1.8223,-9.8836 z m -6.649,10.9492 c -1.2646,-3.4326 -1.0612,-7.0953 0.9652,-10.6635 -2.9059,2.1167 -4.9547,5.2054 -6.1464,9.2659 -0.4405,1.9821 -0.2963,3.8147 0.4324,5.4978 1.6271,-0.8461 3.3284,-2.1047 4.7488,-4.1002 z m 2.4169,-10.9492 c 0.05,3.3374 -0.331,6.7761 -1.8223,9.8836 -0.4652,-4.3957 -0.0842,-7.8344 1.8223,-9.8836 z" />
    <defs
       id="defs245">
      <radialGradient
         r="1"
         cy="0.52999997"
         cx="0.52999997"
         id="grad28">
 &gt;
    <stop
   id="stop248"
   stop-opacity="1"
   stop-color="#000000"
   offset="0%" />
<stop
   id="stop250"
   stop-opacity="1"
   stop-color="#2d9e5b"
   offset="100%" />
</radialGradient>
    </defs>
    <path
       id="path252"
       style="fill:url(#grad28)"
       d="m 254.8588,751.503 c 12.3436,0 22.3511,10.0075 22.3511,22.3523 0,1.5171 -0.1498,2.9991 -0.4393,4.4316 l -8.5355,-1.9557 c 0.1441,-0.7952 0.2193,-1.6143 0.2193,-2.4508 0,-7.5398 -6.1122,-13.652 -13.6526,-13.652 -7.5398,0 -13.652,6.1122 -13.652,13.652 0,0.6022 0.0395,1.1956 0.1153,1.7778 l -8.5048,1.5659 c -0.0301,-9.899 0.0238,-19.595 0.0633,-28.2922 l 10.0112,-3.5932 0,9.6722 c 3.4704,-2.2201 7.598,-3.5079 12.024,-3.5079 z" />
    <defs
       id="defs254">
      <linearGradient
         id="grad29">
        <stop
           id="stop257"
           stop-opacity="1"
           stop-color="#c4c4c5"
           offset="3435993547.0000%" />
        <stop
           id="stop259"
           stop-opacity="1"
           stop-color="#000000"
           offset="12.0000%" />
        <stop
           id="stop261"
           stop-opacity="1"
           stop-color="#d6d6d6"
           offset="0.0000%" />
      </linearGradient>
      <linearGradient
         gradientUnits="objectBoundingBox"
         gradientTransform="matrix(0.9781476,-0.20791169,0.20791169,0.9781476,-0.09302965,0.11488205)"
         y2="1"
         x2="0"
         y1="0"
         x1="0"
         id="grad30"
         xlink:href="#grad29" />
    </defs>
    <path
       id="path264"
       style="fill:url(#grad30)"
       d="m 73.9709,745.797 12.2757,0 0,48.1938 -12.2757,0 0,-48.1938 z m 14.8091,20.5461 0,-9.3637 c 1.9051,-0.7903 4.0484,-1.1801 6.4409,-1.1801 2.4465,0 4.6224,0.4873 6.506,1.4723 1.8944,0.9851 3.4532,2.3383 4.6656,4.0595 1.2124,1.7212 2.1325,3.7131 2.7604,5.9647 0.6171,2.2515 0.9311,4.7197 0.9311,7.4044 0,2.0783 -0.2491,4.6658 -0.758,7.7618 -0.5088,3.096 -1.4071,6.9389 -2.6954,11.5288 l -12.2542,0 c 0.8878,-2.8145 1.6129,-5.8564 2.1867,-9.1256 0.5737,-3.2803 0.8552,-6.0622 0.8552,-8.3463 0,-2.5115 -0.3138,-4.5465 -0.9525,-6.1163 -0.6386,-1.5588 -1.4723,-2.674 -2.5115,-3.3449 -1.0284,-0.6605 -2.1325,-0.9961 -3.3018,-0.9961 -0.7577,0 -1.3855,0.0975 -1.8725,0.2815 z" />
    <defs
       id="defs266">
      <linearGradient
         id="grad31">
        <stop
           id="stop269"
           stop-opacity="1"
           stop-color="#c8c9c9"
           offset="0.0000%" />
        <stop
           id="stop271"
           stop-opacity="1"
           stop-color="#ffffff"
           offset="12.0000%" />
        <stop
           id="stop273"
           stop-opacity="1"
           stop-color="#d6d6d6"
           offset="0.0000%" />
      </linearGradient>
      <linearGradient
         gradientUnits="objectBoundingBox"
         gradientTransform="matrix(0.99862953,-0.05233596,0.05233596,0.99862953,-0.02548275,0.02685321)"
         y2="1"
         x2="0"
         y1="0"
         x1="0"
         id="grad32"
         xlink:href="#grad31" />
    </defs>
    <path
       id="path276"
       style="fill:url(#grad32)"
       d="m 135.546,784.194 0,9.3636 c -2.2301,0.639 -4.5032,0.9528 -6.8307,0.9528 -2.3706,0 -4.4708,-0.4763 -6.311,-1.4398 -1.8403,-0.9635 -3.3668,-2.3057 -4.5791,-4.0269 -1.2016,-1.7322 -2.1002,-3.7131 -2.6955,-5.9538 -0.5956,-2.2408 -0.8878,-4.6551 -0.8878,-7.2638 0,-5.2178 1.0825,-11.6371 3.2369,-19.2473 l 12.4055,0 c -1.0715,3.8863 -1.8402,7.5019 -2.2949,10.8576 -0.4547,3.3451 -0.682,6.1489 -0.682,8.3789 0,3.0526 0.6171,5.2501 1.862,6.6033 1.234,1.3533 2.8038,2.0242 4.709,2.0242 0.4439,0 1.1367,-0.0864 2.0676,-0.2488 z m 2.533,9.7968 0,-37.412 12.276,0 0,37.412 -12.276,0 z" />
    <defs
       id="defs278">
      <linearGradient
         id="grad33">
        <stop
           id="stop281"
           stop-opacity="1"
           stop-color="#c4c4c5"
           offset="3435993547.0000%" />
        <stop
           id="stop283"
           stop-opacity="1"
           stop-color="#000000"
           offset="12.0000%" />
        <stop
           id="stop285"
           stop-opacity="1"
           stop-color="#d6d6d6"
           offset="0.0000%" />
      </linearGradient>
      <linearGradient
         gradientUnits="objectBoundingBox"
         gradientTransform="matrix(0.99862953,-0.05233596,0.05233596,0.99862953,-0.02548275,0.02685321)"
         y2="1"
         x2="0"
         y1="0"
         x1="0"
         id="grad34"
         xlink:href="#grad33" />
    </defs>
    <path
       id="path288"
       style="fill:url(#grad34)"
       d="m 172.8941,765.921 0,-9.3529 c 1.1693,-0.1625 2.5115,-0.2492 4.038,-0.2492 2.7062,0 4.9362,0.5956 6.6792,1.7753 1.7428,1.1801 3.0093,2.674 3.7781,4.4708 0.7684,1.7972 1.1582,3.659 1.1582,5.5752 0,1.1041 -0.1191,2.2731 -0.3682,3.5073 -0.2381,1.2339 -0.5953,2.4248 -1.0608,3.5722 l -10.7929,0 c 0.4439,-1.7427 0.6605,-3.2473 0.6605,-4.5357 0,-1.9051 -0.379,-3.1717 -1.1367,-3.8103 -0.7685,-0.6279 -1.5154,-0.9527 -2.2515,-0.9527 l -0.7039,0 z m -2.4681,-9.3422 0,37.412 -12.2757,0 0,-37.412 12.2757,0 z" />
    <defs
       id="defs290">
      <linearGradient
         id="grad35">
        <stop
           id="stop293"
           stop-opacity="1"
           stop-color="#c4c4c5"
           offset="3435993547.0000%" />
        <stop
           id="stop295"
           stop-opacity="1"
           stop-color="#000000"
           offset="12.0000%" />
        <stop
           id="stop297"
           stop-opacity="1"
           stop-color="#d6d6d6"
           offset="0.0000%" />
      </linearGradient>
      <linearGradient
         gradientUnits="objectBoundingBox"
         gradientTransform="matrix(0.99862953,-0.05233596,0.05233596,0.99862953,-0.02548275,0.02685321)"
         y2="1"
         x2="0"
         y1="0"
         x1="0"
         id="grad36"
         xlink:href="#grad35" />
    </defs>
    <path
       id="path300"
       style="fill:url(#grad36)"
       d="m 196.007,766.2674 0,-9.6886 c 4.2542,-0.5629 8.1079,-0.8444 11.5503,-0.8444 5.1205,0 9.7645,1.1908 13.9212,3.5722 4.157,2.3709 6.2354,7.1232 6.2354,14.2245 l 0,20.4597 -21.109,0 c -3.5941,0 -7.0257,-0.7036 -10.2949,-2.1218 -3.2692,-1.4181 -4.904,-4.5357 -4.904,-9.3529 0,-2.0676 0.4873,-4.0379 1.4724,-5.9108 0.985,-1.8725 2.6305,-3.3882 4.9254,-4.5572 2.295,-1.1801 5.2504,-1.7646 8.8767,-1.7646 l 5.0772,0 c 0.801,1.5157 1.2123,3.6482 1.2123,6.3652 l 0,1.4939 -3.5614,0 c -1.5049,0 -2.7714,0.2165 -3.7998,0.6497 -1.0285,0.4328 -1.5373,1.3422 -1.5373,2.7385 0,0.9527 0.3682,1.7104 1.0936,2.2626 0.7359,0.563 1.6886,0.8445 2.8795,0.8445 l 7.3936,0 0,-8.6279 c 0,-2.0134 -0.1732,-3.7564 -0.5196,-5.2392 -0.3572,-1.4831 -1.3099,-2.8038 -2.8795,-3.9512 -1.559,-1.1586 -3.9296,-1.7323 -7.1124,-1.7323 -2.9009,0 -5.8671,0.3898 -8.9197,1.1801 z" />
    <defs
       id="defs302">
      <linearGradient
         id="grad37">
        <stop
           id="stop305"
           stop-opacity="1"
           stop-color="#c4c4c5"
           offset="3435993547.0000%" />
        <stop
           id="stop307"
           stop-opacity="1"
           stop-color="#000000"
           offset="12.0000%" />
        <stop
           id="stop309"
           stop-opacity="1"
           stop-color="#d6d6d6"
           offset="0.0000%" />
      </linearGradient>
      <linearGradient
         gradientUnits="objectBoundingBox"
         gradientTransform="matrix(0.99862953,-0.05233596,0.05233596,0.99862953,-0.02548275,0.02685321)"
         y2="1"
         x2="0"
         y1="0"
         x1="0"
         id="grad38"
         xlink:href="#grad37" />
    </defs>
    <path
       id="path312"
       style="fill:url(#grad38)"
       d="m 318.6473,766.2674 0,-9.6886 c 4.2543,-0.5629 8.108,-0.8444 11.5504,-0.8444 5.1205,0 9.7645,1.1908 13.9212,3.5722 4.157,2.3709 6.2354,7.1232 6.2354,14.2245 l 0,20.4597 -21.1091,0 c -3.594,0 -7.0256,-0.7036 -10.2948,-2.1218 -3.2692,-1.4181 -4.904,-4.5357 -4.904,-9.3529 0,-2.0676 0.4873,-4.0379 1.4723,-5.9108 0.9851,-1.8725 2.6306,-3.3882 4.9255,-4.5572 2.2949,-1.1801 5.2504,-1.7646 8.8767,-1.7646 l 5.0771,0 c 0.8011,1.5157 1.2124,3.6482 1.2124,6.3652 l 0,1.4939 -3.5614,0 c -1.5049,0 -2.7715,0.2165 -3.7999,0.6497 -1.0284,0.4328 -1.5372,1.3422 -1.5372,2.7385 0,0.9527 0.3682,1.7104 1.0936,2.2626 0.7359,0.563 1.6886,0.8445 2.8794,0.8445 l 7.3937,0 0,-8.6279 c 0,-2.0134 -0.1732,-3.7564 -0.5196,-5.2392 -0.3572,-1.4831 -1.3099,-2.8038 -2.8795,-3.9512 -1.559,-1.1586 -3.9296,-1.7323 -7.1124,-1.7323 -2.901,0 -5.8671,0.3898 -8.9198,1.1801 z" />
    <defs
       id="defs314">
      <linearGradient
         id="grad39">
        <stop
           id="stop317"
           stop-opacity="1"
           stop-color="#c4c4c5"
           offset="3435993547.0000%" />
        <stop
           id="stop319"
           stop-opacity="1"
           stop-color="#000000"
           offset="12.0000%" />
        <stop
           id="stop321"
           stop-opacity="1"
           stop-color="#d6d6d6"
           offset="0.0000%" />
      </linearGradient>
      <linearGradient
         gradientUnits="objectBoundingBox"
         gradientTransform="matrix(0.99862953,-0.05233596,0.05233596,0.99862953,-0.02548275,0.02685321)"
         y2="1"
         x2="0"
         y1="0"
         x1="0"
         id="grad40"
         xlink:href="#grad39" />
    </defs>
    <path
       id="path324"
       style="fill:url(#grad40)"
       d="m 275.2973,782.9115 c -3.4753,7.8299 -11.3202,13.2955 -20.4385,13.2955 -9.6221,0 -17.8229,-6.0791 -20.9724,-14.6064 l 8.4885,-2.0617 c 2.1506,4.7155 6.9056,7.9941 12.4269,7.9941 4.9686,0 9.3175,-2.6544 11.7057,-6.6223 l 8.7898,2.0008 z" />
    <defs
       id="defs326">
      <linearGradient
         id="grad41">
        <stop
           id="stop329"
           stop-opacity="1"
           stop-color="#c4c4c5"
           offset="3435993547.0000%" />
        <stop
           id="stop331"
           stop-opacity="1"
           stop-color="#000000"
           offset="12.0000%" />
        <stop
           id="stop333"
           stop-opacity="1"
           stop-color="#d6d6d6"
           offset="0.0000%" />
      </linearGradient>
      <linearGradient
         gradientUnits="objectBoundingBox"
         gradientTransform="matrix(0.99862953,-0.05233596,0.05233596,0.99862953,-0.02548275,0.02685321)"
         y2="1"
         x2="0"
         y1="0"
         x1="0"
         id="grad42"
         xlink:href="#grad41" />
    </defs>
    <path
       id="path336"
       style="fill:url(#grad42)"
       d="m 232.8587,746.0919 c 0.0254,-5.386 0.0487,-10.4332 0.0487,-14.9622 l 9.9736,-3.2542 0,14.4356 -10.0223,3.7808 z" />
  </g>
  <g
     id="g338">
    <path
       id="path340"
       style="fill:none"
       d="m -3.1918,-2.1708 0,271.4998 280.5001,0 0,-271.4998 -280.5001,0 z" />
    <g
       id="g342">
      <defs
         id="defs344">
        <radialGradient
           r="0.69999999"
           cy="0.57499999"
           cx="0.57499999"
           id="grad43">
 &gt;
    <stop
   id="stop347"
   stop-opacity="1"
   stop-color="#ffffff"
   offset="0%" />
<stop
   id="stop349"
   stop-opacity="1"
   stop-color="#189b2c"
   offset="100%" />
</radialGradient>
      </defs>
      <path
         id="path351"
         style="fill:url(#grad43)"
         d="m 132.2416,66.5488 0,45.6777 c 4.158,-4.1289 8.6622,-7.2472 13.5134,-9.3258 4.8506,-2.0503 10.0475,-3.0899 15.5624,-3.0899 11.9829,0 22.1749,4.5333 30.5771,13.5708 8.4023,9.0665 12.5892,20.6735 12.5892,34.8505 0,1.1025 -0.029,2.1898 -0.0852,3.2633 l -6e-4,-6e-4 c -0.9436,0.0345 -1.9784,0.4322 -3.1032,1.1944 0,0 0.049,-1.447 0.1445,-4.3405 0,0 -0.7616,0.1941 -2.2854,0.5815 0.084,1.9602 -0.0459,3.9439 -0.3899,5.947 -12.6895,2.0273 -32.2701,23.544 -23.9011,38.132 1.8556,-0.4588 3.5939,-0.9749 5.2162,-1.5504 -5.9168,3.2338 -12.4012,4.8476 -19.4543,4.8476 -5.284,0 -10.2222,-0.9532 -14.7833,-2.8294 -4.5616,-1.8761 -9.5585,-5.0506 -14.0627,-9.324 l 6e-4,10.1007 -22.5787,-0.1994 0,-127.5055 23.041,0 z m 72.0215,86.9026 c -0.0321,0.3753 -0.0683,0.7489 -0.1076,1.1206 l -0.2871,-0.0605 c -0.4824,-0.0713 -0.9526,-0.1196 -1.4126,-0.1456 0.5833,-0.5585 1.1249,-0.9182 1.6247,-1.0632 0.0617,0.0447 0.1221,0.0943 0.1826,0.1487 z m -0.4201,3.545 c -1.3745,9.0502 -4.963,16.9628 -10.7747,23.7271 -0.6129,0.466 -1.253,0.938 -1.9215,1.4204 4.6101,-4.5671 7.353,-13.2849 9.7756,-25.3833 0.9151,-0.001 1.7595,0.046 2.5265,0.1409 0.1294,0.0296 0.2617,0.061 0.3941,0.0949 z m -15.6077,25.738 c -1.5123,-8.3509 0.4219,-16.6389 6.4838,-23.9791 -7.4896,3.6707 -13.41,9.9061 -17.762,18.7066 -1.8024,4.3526 -2.2074,8.5981 -1.2173,12.7367 4.0576,-1.2802 8.4494,-3.4743 12.4955,-7.4642 z m 9.9157,-24.0498 c -1.2246,7.6461 -3.4749,15.3508 -8.129,21.8533 0.7005,-10.2313 2.9502,-17.936 8.129,-21.8533 z m -41.7132,-37.7379 c -7.2472,0 -13.2819,2.483 -18.046,7.42 -4.7926,4.9667 -7.1892,11.4341 -7.1892,19.432 0,8.1713 2.3966,14.7833 7.1892,19.8073 4.7641,5.0531 10.7988,7.5651 18.046,7.5651 7.0453,0 12.9645,-2.57 17.7861,-7.6805 4.8222,-5.1395 7.2187,-11.665 7.2187,-19.6049 0,-7.883 -2.3675,-14.3505 -7.1033,-19.3745 -4.7061,-5.0525 -10.6828,-7.5645 -17.9015,-7.5645 z" />
      <defs
         id="defs353">
        <linearGradient
           id="grad44">
          <stop
             id="stop356"
             stop-opacity="1"
             stop-color="#169a2d"
             offset="0.0000%" />
          <stop
             id="stop358"
             stop-opacity="1"
             stop-color="#ffffff"
             offset="12.0000%" />
          <stop
             id="stop360"
             stop-opacity="1"
             stop-color="#d6d6d6"
             offset="0.0000%" />
          <stop
             id="stop362"
             stop-opacity="1"
             stop-color="#ffffff"
             offset="83890432.0000%" />
          <stop
             id="stop364"
             stop-opacity="1"
             stop-color="#ffffff"
             offset="0.0000%" />
        </linearGradient>
        <linearGradient
           gradientUnits="objectBoundingBox"
           gradientTransform="matrix(0.82903757,0.5591929,-0.5591929,0.82903757,0.36507767,-0.19411524)"
           y2="1"
           x2="0"
           y1="0"
           x1="0"
           id="grad45"
           xlink:href="#grad44" />
      </defs>
      <path
         id="path367"
         style="fill:url(#grad45)"
         d="m 179.9866,191.5072 c 4.1681,-1.47 7.5711,-3.3232 10.207,-5.5584 1.5281,4.8143 3.892,9.3434 5.987,12.2694 2.9653,-2.0375 6.7298,-5.4907 9.8069,-9.4969 2.3755,4.1519 6.3817,8.1152 12.0186,11.8887 12.8376,-10.8647 1.7577,-37.7645 -9.483,-43.9932 0.3597,-2.0007 0.9127,-3.9095 1.6592,-5.7246 -1.3001,-0.8831 -1.9505,-1.3249 -1.9505,-1.3249 -0.8952,2.7532 -1.3431,4.1301 -1.3431,4.1301 -0.7924,-1.0928 -1.6235,-1.8164 -2.492,-2.1724 -0.0351,0.6601 -0.0816,1.3141 -0.1379,1.9632 0.344,0.3156 0.6661,0.781 0.9677,1.3902 -0.3469,-0.1039 -0.7053,-0.1976 -1.0746,-0.2798 -0.0871,0.8166 -0.1923,1.6247 -0.3137,2.4244 0.6346,0.162 1.3074,0.3717 2.0145,0.6292 -1.8429,12.2005 -2.2346,21.3311 0.5452,27.1953 -2.8487,-4.176 -4.8107,-7.6503 -5.9174,-11.121 -1.8628,2.4166 -4.2897,4.6312 -7.4363,7.0236 -0.5108,0.5929 -1.0379,1.178 -1.5831,1.754 -3.5528,3.7777 -7.3777,6.7776 -11.4745,9.0031 z m 16.8105,3.1999 c -1.4089,-2.5248 -2.3833,-4.4003 -2.9243,-5.6273 1.0892,0.6975 2.3066,1.1847 3.6551,1.4615 1.3618,0.1989 2.6734,0.1559 3.9336,-0.1293 -0.9266,0.9689 -2.4806,2.4014 -4.6644,4.2951 z m 1.4204,-8.091 c -1.5637,-0.3216 -3.1811,-0.8444 -4.8542,-1.5727 2.1482,-1.4996 4.1827,-3.354 6.1066,-5.5627 1.0554,2.7315 2.3374,5.1686 3.846,7.3101 -1.8205,0.1148 -3.5202,0.0556 -5.0984,-0.1747 z m 10.7154,-0.2212 c 4.2667,-7.3367 5.2719,-15.7879 2.072,-24.754 5.7917,6.002 9.234,13.8814 10.328,23.6382 0.2116,4.7061 -0.8528,8.8362 -3.1932,12.3897 -3.3782,-2.5858 -6.7612,-6.1447 -9.2068,-11.2739 z m -1.1296,-25.9895 c -1.4537,7.6062 -1.9633,15.6162 0.1982,23.3155 2.8263,-9.8578 3.3359,-17.8683 -0.1982,-23.3155 z" />
      <defs
         id="defs369">
        <linearGradient
           id="grad46">
          <stop
             id="stop372"
             stop-opacity="1"
             stop-color="#c4c4c4"
             offset="0.0000%" />
          <stop
             id="stop374"
             stop-opacity="1"
             stop-color="#ffffff"
             offset="12.0000%" />
          <stop
             id="stop376"
             stop-opacity="1"
             stop-color="#d6d6d6"
             offset="0.0000%" />
        </linearGradient>
        <linearGradient
           gradientUnits="objectBoundingBox"
           gradientTransform="matrix(0.9945219,0.10452846,-0.10452846,0.9945219,0.05500328,-0.04952518)"
           y2="1"
           x2="0"
           y1="0"
           x1="0"
           id="grad47"
           xlink:href="#grad46" />
      </defs>
      <path
         id="path379"
         style="fill:url(#grad47)"
         d="m 50.3552,66.7482 23.0411,0 0,44.9271 c 4.5042,-3.898 9.0085,-6.8138 13.5708,-8.7486 4.5326,-1.9342 9.1529,-2.9164 13.8016,-2.9164 9.095,0 16.7755,3.1473 23.0121,9.4709 5.3414,5.4568 7.9979,13.4837 7.9979,24.0516 l 0,60.7209 -22.6948,0 0,-40.2783 c 0,-10.6259 -0.4908,-17.8441 -1.5014,-21.5977 -1.0106,-3.7825 -2.7429,-6.5828 -5.1969,-8.4602 -2.4256,-1.8478 -5.4574,-2.7714 -9.0375,-2.7714 -4.6487,0 -8.6622,1.5589 -12.0113,4.6488 -3.3208,3.0892 -5.6304,7.3045 -6.9299,12.6465 -0.6643,2.7714 -1.0106,9.066 -1.0106,18.9122 l 0,36.9001 -23.0411,0 0,-127.5055 z" />
    </g>
  </g>
</svg>
