<?xml version="1.0" encoding="UTF-8"?>
<!DOCTYPE svg PUBLIC "-//W3C//DTD SVG 1.1//EN" "http://www.w3.org/Graphics/SVG/1.1/DTD/svg11.dtd">
<!-- Creator: CorelDRAW X8 -->
<svg xmlns="http://www.w3.org/2000/svg" xml:space="preserve" width="97.5019mm" height="32.0182mm" version="1.1" shape-rendering="geometricPrecision" text-rendering="geometricPrecision" image-rendering="optimizeQuality" fill-rule="evenodd" clip-rule="evenodd"
viewBox="0 0 6024 1978"
 xmlns:xlink="http://www.w3.org/1999/xlink">
 <defs>
    <radialGradient id="id0" gradientUnits="userSpaceOnUse" gradientTransform="matrix(1.48936 1.3992 -1.16356 1.79097 -1549 -7643)" cx="5021.27" cy="780.556" r="179.398" fx="5021.27" fy="780.556">
     <stop offset="0" stop-opacity="1" stop-color="#29A550"/>
     <stop offset="1" stop-opacity="1" stop-color="#248F3F"/>
    </radialGradient>
    <radialGradient id="id1" gradientUnits="userSpaceOnUse" gradientTransform="matrix(1.00001 -0 -0 1.01286 0 -12)" cx="4003.47" cy="897.687" r="219.175" fx="4003.47" fy="897.687">
     <stop offset="0" stop-opacity="1" stop-color="#00FF44"/>
     <stop offset="1" stop-opacity="1" stop-color="#1E9455"/>
    </radialGradient>
    <linearGradient id="id2" gradientUnits="userSpaceOnUse" x1="246.904" y1="421.297" x2="540.226" y2="1410.38">
     <stop offset="0" stop-opacity="1" stop-color="#C5C6C6"/>
     <stop offset="0.760784" stop-opacity="1" stop-color="#DCE3E3"/>
     <stop offset="1" stop-opacity="1" stop-color="#B2B3B3"/>
    </linearGradient>
    <linearGradient id="id3" gradientUnits="userSpaceOnUse" x1="1245.32" y1="626.514" x2="1297.32" y2="1451.49">
     <stop offset="0" stop-opacity="1" stop-color="#C9CACA"/>
     <stop offset="0.760784" stop-opacity="1" stop-color="#DCE3E3"/>
     <stop offset="1" stop-opacity="1" stop-color="#B2B3B3"/>
    </linearGradient>
    <linearGradient id="id4" gradientUnits="userSpaceOnUse" x1="2135.65" y1="621.479" x2="2196.49" y2="1439.54">
     <stop offset="0" stop-opacity="1" stop-color="#C5C6C6"/>
     <stop offset="0.760784" stop-opacity="1" stop-color="#DCE3E3"/>
     <stop offset="1" stop-opacity="1" stop-color="#B2B3B3"/>
    </linearGradient>
    <linearGradient id="id5" gradientUnits="userSpaceOnUse" x1="2929.03" y1="608.127" x2="2981.63" y2="1440.15">
     <stop offset="0" stop-opacity="1" stop-color="#C5C6C6"/>
     <stop offset="0.760784" stop-opacity="1" stop-color="#DCE3E3"/>
     <stop offset="1" stop-opacity="1" stop-color="#B2B3B3"/>
    </linearGradient>
    <linearGradient id="id6" gradientUnits="userSpaceOnUse" x1="5602.13" y1="491.391" x2="5654.73" y2="1323.41">
     <stop offset="0" stop-opacity="1" stop-color="#C5C6C6"/>
     <stop offset="0.760784" stop-opacity="1" stop-color="#DCE3E3"/>
     <stop offset="1" stop-opacity="1" stop-color="#B2B3B3"/>
    </linearGradient>
    <linearGradient id="id7" gradientUnits="userSpaceOnUse" x1="3950.51" y1="1209.41" x2="3959.3" y2="1573.15">
     <stop offset="0" stop-opacity="1" stop-color="#C5C6C6"/>
     <stop offset="0.760784" stop-opacity="1" stop-color="#DCE3E3"/>
     <stop offset="1" stop-opacity="1" stop-color="#B2B3B3"/>
    </linearGradient>
    <linearGradient id="id8" gradientUnits="userSpaceOnUse" x1="3851.28" y1="-27.7845" x2="4041.44" y2="1715.94">
     <stop offset="0" stop-opacity="1" stop-color="#C5C6C6"/>
     <stop offset="0.760784" stop-opacity="1" stop-color="#DCE3E3"/>
     <stop offset="1" stop-opacity="1" stop-color="#B2B3B3"/>
    </linearGradient>
 </defs>
 <g id="Слой_x0020_1">
  <metadata id="CorelCorpID_0Corel-Layer"/>
  <g id="_2001595799392">
   <path fill="#D9DADA" d="M3945 1170c-20,-25 -35,-44 -43,-57 13,6 28,9 43,9 16,0 31,-3 44,-9 -8,13 -23,32 -44,57z"/>
   <path fill="#43A549" d="M3945 754c-8,2 -17,8 -26,16 0,0 -2,-13 -6,-40 0,0 -7,3 -20,9 4,18 6,37 6,56 -114,39 -261,270 -160,391 59,-25 102,-55 131,-90 22,42 51,80 75,104 24,-24 54,-62 76,-104 28,35 72,65 130,90 101,-121 -45,-352 -159,-391 0,-19 2,-38 6,-56 -13,-6 -20,-9 -20,-9 -4,27 -6,40 -6,40 -9,-8 -18,-14 -27,-16zm0 412c-17,-21 -29,-37 -36,-47 11,5 23,7 36,8 13,-1 25,-3 37,-8 -7,10 -20,26 -37,47zm0 -77c-15,0 -30,-2 -47,-7 17,-17 33,-37 47,-61 15,24 30,44 48,61 -17,5 -33,7 -48,7zm0 -123c-16,31 -39,59 -73,93 36,-49 47,-134 50,-250 8,-2 16,-3 23,-3 8,0 15,1 24,3 3,116 14,201 49,250 -33,-34 -57,-62 -73,-93zm0 -183c-4,0 -9,1 -13,1 5,-6 9,-10 13,-12 5,2 9,6 14,12 -5,0 -9,-1 -14,-1zm99 287c28,-75 23,-155 -21,-233 63,46 108,114 134,202 10,43 7,83 -9,120 -36,-18 -73,-46 -104,-89zm-53 -239c-1,73 8,148 40,215 10,-95 2,-170 -40,-215zm-144 239c-28,-75 -24,-155 21,-233 -64,46 -108,114 -134,202 -10,43 -7,83 9,120 35,-18 73,-46 104,-89zm52 -239c1,73 -7,148 -40,215 -10,-95 -1,-170 40,-215z"/>
   <path fill="url(#id0)" fill-rule="nonzero" d="M4530 626l640 0c-12,62 -33,131 -63,207 -30,76 -66,149 -109,219 -42,71 -89,129 -138,177l310 0 0 212 -678 0 0 -212c76,-52 142,-112 199,-182 58,-69 96,-139 115,-209l-276 0 0 -212z"/>
   <path fill="url(#id1)" d="M3943 515c269,0 487,218 487,487 0,33 -3,66 -10,97l-186 -43c3,-17 5,-35 5,-53 0,-165 -133,-298 -298,-298 -164,0 -297,133 -297,298 0,13 1,26 2,38l-185 35c-1,-216 1,-427 1,-617l219 -78 0 210c75,-48 165,-76 262,-76z"/>
   <path fill="url(#id2)" fill-rule="nonzero" d="M0 391l268 0 0 1050 -268 0 0 -1050zm323 447l0 -204c41,-17 88,-25 140,-25 53,0 101,10 142,32 41,21 75,51 102,88 26,38 46,81 60,130 13,49 20,103 20,162 0,45 -5,101 -16,169 -11,67 -31,151 -59,251l-267 0c19,-61 35,-128 47,-199 13,-71 19,-132 19,-182 0,-54 -7,-99 -21,-133 -14,-34 -32,-58 -54,-73 -23,-14 -47,-22 -72,-22 -17,0 -31,2 -41,6z"/>
   <path fill="url(#id3)" fill-rule="nonzero" d="M1342 1228l0 204c-49,14 -98,20 -149,20 -51,0 -97,-10 -137,-31 -40,-21 -74,-50 -100,-88 -26,-38 -46,-81 -59,-130 -13,-48 -19,-101 -19,-158 0,-114 23,-254 70,-419l271 0c-24,84 -40,163 -50,236 -10,73 -15,134 -15,183 0,66 13,114 40,144 27,29 62,44 103,44 10,0 25,-2 45,-5zm55 213l0 -815 268 0 0 815 -268 0z"/>
   <path fill="url(#id4)" fill-rule="nonzero" d="M2156 829l0 -204c26,-3 55,-5 88,-5 59,0 108,13 146,39 38,25 65,58 82,97 17,39 25,80 25,122 0,24 -2,49 -8,76 -5,27 -13,53 -23,78l-235 0c10,-38 14,-71 14,-99 0,-41 -8,-69 -24,-83 -17,-14 -33,-21 -50,-21l-15 0zm-54 -203l0 815 -267 0 0 -815 267 0z"/>
   <path fill="url(#id5)" fill-rule="nonzero" d="M2660 837l0 -211c93,-13 177,-19 252,-19 111,0 213,26 303,78 91,52 136,155 136,310l0 446 -460 0c-78,0 -153,-15 -224,-46 -72,-31 -107,-99 -107,-204 0,-45 10,-88 32,-129 21,-41 57,-74 107,-99 50,-26 115,-39 194,-39l110 0c18,33 27,80 27,139l0 33 -78 0c-33,0 -60,4 -83,14 -22,9 -33,29 -33,59 0,21 8,38 24,50 16,12 36,18 62,18l161 0 0 -188c0,-44 -3,-82 -11,-114 -8,-32 -28,-61 -63,-86 -34,-25 -85,-38 -155,-38 -63,0 -128,9 -194,26z"/>
   <path fill="url(#id6)" fill-rule="nonzero" d="M5333 837l0 -211c93,-13 177,-19 252,-19 111,0 213,26 303,78 91,52 136,155 136,310l0 446 -460 0c-78,0 -153,-15 -224,-46 -72,-31 -107,-99 -107,-204 0,-45 10,-88 32,-129 21,-41 57,-74 107,-99 50,-26 115,-39 194,-39l110 0c18,33 27,80 27,139l0 33 -78 0c-33,0 -60,4 -83,14 -22,9 -33,29 -33,59 0,21 8,38 24,50 16,12 36,18 62,18l162 0 0 -188c0,-44 -4,-82 -12,-114 -8,-32 -28,-61 -63,-86 -34,-25 -85,-38 -155,-38 -63,0 -127,9 -194,26z"/>
   <path fill="url(#id7)" d="M4388 1200c-76,170 -247,289 -445,289 -210,0 -389,-132 -457,-318l185 -45c46,103 150,174 270,174 109,0 204,-58 256,-144l191 44z"/>
   <path fill="url(#id8)" d="M3463 397c1,-117 1,-227 1,-326l218 -71 0 315 -219 82z"/>
   <path fill="#43A549" fill-rule="nonzero" d="M1154 1693c28,0 50,8 67,24 17,15 25,36 25,63 0,27 -9,48 -26,63 -17,14 -42,22 -75,22l-165 0 0 105 -46 0 0 -277 220 0zm-8 130c35,0 53,-14 53,-43 0,-30 -19,-46 -56,-46l-163 0 0 89 166 0z"/>
   <path id="1" fill="#43A549" fill-rule="nonzero" d="M1613 1970l-54 0 -74 -105 -140 0 0 105 -46 0 0 -277 218 0c29,0 52,8 69,24 16,15 25,37 25,63 0,24 -7,43 -21,57 -12,13 -29,22 -51,25l74 108zm-103 -147c36,0 54,-14 54,-43 0,-30 -20,-46 -58,-46l-161 0 0 89 165 0z"/>
   <path id="2" fill="#43A549" fill-rule="nonzero" d="M2026 1831c0,46 -19,82 -56,110 -33,25 -73,37 -122,37 -49,0 -90,-12 -122,-37 -37,-28 -56,-65 -56,-110 0,-44 19,-81 57,-109 33,-25 73,-38 121,-38 49,0 89,13 122,38 37,28 56,65 56,109zm-48 0c0,-32 -14,-58 -41,-79 -24,-17 -53,-26 -89,-26 -38,0 -70,10 -94,30 -24,20 -36,45 -36,75 0,32 12,57 35,76 24,19 56,29 95,29 40,0 71,-10 95,-29 23,-19 35,-45 35,-76z"/>
   <path id="3" fill="#43A549" fill-rule="nonzero" d="M2444 1827c0,45 -16,82 -49,110 -32,27 -75,41 -128,41 -49,0 -89,-12 -122,-37 -37,-28 -56,-65 -56,-110 0,-44 19,-81 57,-109 33,-25 74,-38 125,-38 61,0 111,23 150,67l-43 22c-29,-31 -66,-47 -111,-47 -35,0 -65,9 -88,26 -28,21 -42,47 -42,79 0,31 12,57 36,76 24,19 55,29 94,29 61,0 101,-24 119,-71l-129 0 0 -42 187 0 0 4z"/>
   <path id="4" fill="#43A549" fill-rule="nonzero" d="M2836 1970l-53 0 -75 -105 -140 0 0 105 -46 0 0 -277 218 0c30,0 52,8 69,24 17,15 25,37 25,63 0,24 -7,43 -20,57 -13,13 -30,22 -52,25l74 108zm-102 -147c35,0 53,-14 53,-43 0,-30 -19,-46 -58,-46l-161 0 0 89 166 0z"/>
   <path id="5" fill="#43A549" fill-rule="nonzero" d="M3212 1970l-50 0 -32 -62 -187 0 -32 62 -50 0 147 -277 57 0 147 277zm-104 -103l-71 -134 -71 134 142 0z"/>
   <polygon id="6" fill="#43A549" fill-rule="nonzero" points="3642,1970 3596,1970 3596,1744 3595,1744 3451,1924 3308,1744 3307,1744 3307,1970 3261,1970 3261,1693 3318,1693 3451,1861 3585,1693 3642,1693 "/>
   <polygon id="7" fill="#43A549" fill-rule="nonzero" points="4115,1970 4069,1970 4069,1744 4068,1744 3924,1924 3782,1744 3780,1744 3780,1970 3734,1970 3734,1693 3792,1693 3925,1861 4058,1693 4115,1693 "/>
   <polygon id="8" fill="#43A549" fill-rule="nonzero" points="4254,1970 4208,1970 4208,1693 4254,1693 "/>
   <polygon id="9" fill="#43A549" fill-rule="nonzero" points="4658,1970 4600,1970 4389,1743 4389,1970 4343,1970 4343,1693 4400,1693 4612,1920 4612,1693 4658,1693 "/>
   <path id="10" fill="#43A549" fill-rule="nonzero" d="M5090 1827c0,45 -16,82 -48,110 -33,27 -75,41 -129,41 -48,0 -89,-12 -122,-37 -37,-28 -55,-65 -55,-110 0,-44 18,-81 56,-109 33,-25 75,-38 125,-38 61,0 111,23 150,67l-43 22c-29,-31 -66,-47 -111,-47 -35,0 -64,9 -88,26 -28,21 -41,47 -41,79 0,31 11,57 35,76 24,19 55,29 94,29 62,0 101,-24 120,-71l-129 0 0 -42 186 0 0 4z"/>
  </g>
 </g>
</svg>
